<svg width="21" height="39" viewBox="0 0 21 39" fill="none" xmlns="http://www.w3.org/2000/svg">
<path fill-rule="evenodd" clip-rule="evenodd" d="M6.7473 2.68562C5.34542 3.10224 4.34627 3.69603 3.83759 4.3496C3.31883 5.01611 2.92345 5.96903 2.64346 7.17269C2.36542 8.36793 2.21629 9.74284 2.1452 11.1978C2.13655 11.3746 2.12907 11.5517 2.12265 11.729C2.26702 11.4898 2.50507 11.3089 2.79814 11.2461C5.34317 10.7007 7.87405 10.6285 10.3483 10.6857C11.4045 10.7102 12.4216 10.7562 13.4262 10.8017C14.839 10.8657 16.2271 10.9286 17.6644 10.9286C18.2415 10.9286 18.7094 11.4002 18.7094 11.9821C18.7094 12.5639 18.2415 13.0355 17.6644 13.0355C16.2122 13.0355 14.7102 12.9685 13.2379 12.9028C12.2366 12.8581 11.249 12.8141 10.3003 12.7921C7.8892 12.7363 5.54517 12.8114 3.23273 13.307C2.76854 13.4064 2.31084 13.1785 2.09608 12.7779C2.07444 14.2016 2.10699 15.6165 2.13769 16.9508C2.15941 17.8952 2.18021 18.7993 2.18021 19.6376C2.18021 20.7508 2.17258 21.8391 2.16505 22.9125C2.13849 26.7 2.11323 30.3022 2.42917 34.1587C2.47667 34.7385 2.0489 35.2474 1.47371 35.2953C0.898528 35.3432 0.393739 34.9119 0.346236 34.3321C0.0218461 30.3725 0.0482051 26.6487 0.0751284 22.8453C0.0826371 21.7846 0.0901896 20.7176 0.0901896 19.6376C0.0901896 18.8922 0.0708535 18.0383 0.0500876 17.1213C0.0076477 15.2471 -0.0407645 13.1092 0.0577045 11.0941C0.132043 9.57283 0.29066 8.05859 0.608636 6.69165C0.924653 5.33314 1.41355 4.05085 2.19328 3.04901C3.09086 1.89577 4.57551 1.13446 6.1563 0.664662C7.76475 0.186649 9.61391 -0.0320102 11.4055 0.00377245C13.1927 0.0394679 14.9833 0.329631 16.461 0.915608C17.9118 1.49096 19.2413 2.42806 19.776 3.87515C20.2003 5.02378 20.5 6.99471 20.6987 9.35443C20.9007 11.7531 21.0063 14.6676 20.9997 17.776C20.9866 23.9816 20.5264 31.0385 19.4629 36.37C19.228 37.5471 18.3417 38.1972 17.4345 38.5357C16.5442 38.8679 15.4629 38.9754 14.4254 38.9961C13.3711 39.0172 12.2652 38.9488 11.2908 38.8786C11.1141 38.8658 10.9429 38.8532 10.7778 38.841C10.0046 38.7837 9.36216 38.7362 8.88147 38.7362C8.69025 38.7362 8.48359 38.7379 8.26511 38.7396C7.42211 38.7464 6.4033 38.7547 5.41777 38.6738C4.19156 38.5732 2.82592 38.3252 1.76948 37.6362C1.28489 37.3202 1.14619 36.668 1.45968 36.1795C1.77317 35.691 2.42013 35.5512 2.90471 35.8672C3.51088 36.2625 4.4438 36.48 5.58732 36.5738C6.4698 36.6462 7.36352 36.6393 8.19806 36.6328C8.43099 36.631 8.6593 36.6292 8.88147 36.6292C9.44671 36.6292 10.1884 36.6844 10.9615 36.7418C11.12 36.7536 11.2799 36.7655 11.4398 36.777C12.4097 36.8469 13.4331 36.9086 14.3841 36.8896C15.3518 36.8703 16.1516 36.7678 16.709 36.5598C17.2494 36.3581 17.3773 36.138 17.4139 35.9546C18.4396 30.8124 18.8968 23.908 18.9097 17.7715C18.9161 14.7088 18.8119 11.857 18.6162 9.53264C18.4172 7.16927 18.1313 5.46027 17.8174 4.61054C17.5841 3.97905 16.9085 3.35722 15.6958 2.8763C14.5099 2.406 12.9786 2.14255 11.3641 2.1103C9.7539 2.07814 8.12151 2.27722 6.7473 2.68562ZM15.3587 5.91537C15.9359 5.91537 16.4037 6.38703 16.4037 6.96885V7.85324C16.4037 8.43505 15.9359 8.90671 15.3587 8.90671C14.7816 8.90671 14.3137 8.43505 14.3137 7.85324V6.96885C14.3137 6.38703 14.7816 5.91537 15.3587 5.91537ZM15.9015 19.4799C16.4786 19.4799 16.9465 19.9515 16.9465 20.5334V23.3347C16.9465 23.9165 16.4786 24.3881 15.9015 24.3881C15.3243 24.3881 14.8565 23.9165 14.8565 23.3347V20.5334C14.8565 19.9515 15.3243 19.4799 15.9015 19.4799Z" fill="black" fill-opacity="0.9"/>
</svg>
